<?xml version="1.0" encoding="UTF-8" standalone="no"?>
<!-- Created with Inkscape (http://www.inkscape.org/) -->

<svg
   version="1.1"
   id="svg1"
   width="1024"
   height="1024"
   viewBox="0 0 1024 1024"
   xmlns="http://www.w3.org/2000/svg"
   xmlns:svg="http://www.w3.org/2000/svg">
  <defs
     id="defs1" />
  <g
     id="g1">
    <g
       id="g33">
      <path
         style="fill:#553a91"
         d="M 13.168383,938.39662 C 7.4885519,935.56624 3.5234531,931.12737 1.4267529,925.25203 -0.45341511,919.98346 -0.65762678,550.95782 1.2161163,544.61602 2.839026,539.12318 11.123183,530.83903 16.61602,529.21612 c 5.988131,-1.76925 456.77983,-1.76925 462.76796,0 5.49284,1.62291 13.77699,9.90706 15.3999,15.3999 1.87375,6.3418 1.66954,375.36744 -0.21063,380.63601 -2.13519,5.98319 -6.4231,10.76945 -11.95622,13.34581 l -5.11703,2.38262 -229.55366,0.01 L 18.392689,941 Z m 527.999997,0 c -5.67983,-2.83038 -9.64493,-7.26925 -11.74163,-13.14459 -1.88017,-5.26857 -2.08438,-374.29421 -0.21063,-380.63601 1.62291,-5.49284 9.90706,-13.77699 15.3999,-15.3999 C 547.79478,528.27692 600.52621,528 776.18788,528 c 254.20272,0 232.81982,-0.64742 240.59652,7.28464 7.8231,7.97935 7.2156,-8.84746 7.2156,199.87321 0,165.55559 -0.1749,187.32494 -1.5309,190.57044 -2.4751,5.92375 -6.2589,10.13148 -11.4979,12.78629 L 1006.0665,941 H 776.22959 546.39269 Z M 16,494.69264 C 10.76914,493.0439 2.6512689,484.45937 1.1604128,479 0.20415199,475.49827 -0.00540431,432.88814 0.21577167,286.92144 L 0.5,99.342885 3.5264355,94.447878 C 5.4022263,91.413943 8.4139954,88.402226 11.448016,86.526436 L 16.34316,83.5 H 248 479.65684 l 4.89514,3.026436 c 3.03403,1.875791 6.04579,4.887507 7.92158,7.921443 l 3.02644,4.895007 0.26033,188.039424 c 0.29128,210.39569 0.87608,193.6361 -7.02696,201.3844 -8.04449,7.88697 13.65369,7.24521 -241.1091,7.1312 C 84.360147,495.82485 18.504882,495.48217 16,494.69264 Z m 527.8522,-0.0791 c -6.8773,-2.46522 -12.9983,-8.88077 -14.85723,-15.57219 -0.62884,-2.26357 -0.98583,-70.93496 -0.98939,-190.32346 -0.005,-165.45242 0.16925,-187.20054 1.52536,-190.446172 2.4751,-5.923749 6.25883,-10.131482 11.49783,-12.786285 L 545.93351,83 H 776 1006.0665 l 4.9761,2.521594 c 5.4476,2.760517 10.3461,8.629238 12.0109,14.38977 0.7044,2.437596 0.9424,63.888636 0.7418,191.588636 -0.2759,175.61806 -0.4086,188.20706 -2.0161,191.14388 -2.2012,4.02159 -7.1137,8.9341 -11.1353,11.13532 -2.9449,1.61188 -17.70169,1.73413 -233.1439,1.93135 -187.28718,0.17145 -230.67742,-0.0323 -233.6478,-1.09702 z"
         id="path36" />
      <path
         style="fill:#0064b3"
         d="m 541.16838,938.39662 c -2.87337,-1.43186 -6.32789,-4.05026 -7.67672,-5.81867 C 527.65236,924.92224 528,937.44602 528,734.74029 c 0,-143.1195 0.28041,-186.9573 1.21612,-190.12427 1.71729,-5.81228 9.93511,-13.85869 15.78388,-15.45467 3.50996,-0.95777 54.77215,-1.1656 233,-0.94464 l 228.5,0.28329 4,2.15842 c 4.6805,2.5256 8.5267,6.44291 11.1358,11.34158 1.7971,3.37406 1.8736,10.24531 2.1246,190.96078 0.2894,208.39576 0.7837,193.08318 -6.4743,200.55649 -1.9935,2.0526 -5.4608,4.56604 -7.7053,5.58541 -3.9348,1.78709 -12.2935,1.85418 -233.63446,1.87536 L 546.39269,941 Z M 16,494.69703 C 10.76553,493.04059 2.6505427,484.45671 1.1604128,479 0.20415199,475.49827 -0.00540431,432.88814 0.21577167,286.92144 L 0.5,99.342885 3.5264355,94.447878 C 5.4021851,91.41401 8.4140349,88.402185 11.447944,86.526436 L 16.343018,83.5 246.89834,83.243626 l 230.55531,-0.256374 5.17332,2.531069 c 2.84533,1.392089 6.37414,4.105414 7.84179,6.029613 5.90849,7.746428 5.57526,-4.814211 5.2916,199.456596 -0.25099,180.74931 -0.32743,187.6214 -2.12452,190.99547 -2.60912,4.89867 -6.45537,8.81598 -11.13584,11.34158 L 478.5,495.5 249,495.6523 C 83.527371,495.76211 18.523548,495.4956 16,494.69703 Z m 529.99353,0.373 c -6.8728,-2.1026 -12.12907,-6.49814 -15.62937,-13.07003 -1.79643,-3.37284 -1.87527,-10.25766 -2.16984,-189.5 -0.22663,-137.90252 -0.007,-187.38963 0.84945,-191.37391 0.93496,-4.349682 2.13679,-6.380212 6.30568,-10.6537 3.42932,-3.515363 6.48729,-5.644286 9.15055,-6.370509 5.65951,-1.543246 457.3405,-1.543246 463,0 2.6633,0.726223 5.7212,2.855146 9.1506,6.370509 4.1688,4.273488 5.3707,6.304018 6.3056,10.6537 0.8565,3.98428 1.0761,53.47139 0.8495,191.37391 -0.2946,179.24234 -0.3734,186.12716 -2.1699,189.5 -2.6091,4.89867 -6.4553,8.81598 -11.1358,11.34158 l -4,2.15842 -229,0.16842 c -125.95,0.0926 -230.12791,-0.17664 -231.50647,-0.59839 z"
         id="path35" />
      <path
         style="fill:#b71803"
         d="m 541.16838,938.39662 c -2.87337,-1.43186 -6.32789,-4.05026 -7.67672,-5.81867 C 527.65236,924.92224 528,937.44602 528,734.74029 c 0,-143.1195 0.28041,-186.9573 1.21612,-190.12427 1.71729,-5.81228 9.93511,-13.85869 15.78388,-15.45467 3.50996,-0.95777 54.77215,-1.1656 233,-0.94464 l 228.5,0.28329 4,2.15842 c 4.6805,2.5256 8.5267,6.44291 11.1358,11.34158 1.7971,3.37406 1.8736,10.24531 2.1246,190.96078 0.2894,208.39576 0.7837,193.08318 -6.4743,200.55649 -1.9935,2.0526 -5.4608,4.56604 -7.7053,5.58541 -3.9348,1.78709 -12.2935,1.85418 -233.63446,1.87536 L 546.39269,941 Z m 4.82515,-443.32659 c -6.8728,-2.1026 -12.12907,-6.49814 -15.62937,-13.07003 -1.79643,-3.37284 -1.87527,-10.25766 -2.16984,-189.5 -0.22663,-137.90252 -0.007,-187.38963 0.84945,-191.37391 0.93496,-4.349682 2.13679,-6.380212 6.30568,-10.6537 3.42932,-3.515363 6.48729,-5.644286 9.15055,-6.370509 5.65951,-1.543246 457.3405,-1.543246 463,0 2.6633,0.726223 5.7212,2.855146 9.1506,6.370509 4.1688,4.273488 5.3707,6.304018 6.3056,10.6537 0.8565,3.98428 1.0761,53.47139 0.8495,191.37391 -0.2946,179.24234 -0.3734,186.12716 -2.1699,189.5 -2.6091,4.89867 -6.4553,8.81598 -11.1358,11.34158 l -4,2.15842 -229,0.16842 c -125.95,0.0926 -230.12791,-0.17664 -231.50647,-0.59839 z"
         id="path34" />
      <path
         style="fill:#0c6a0c"
         d="m 545.99353,495.07003 c -6.8728,-2.1026 -12.12907,-6.49814 -15.62937,-13.07003 -1.79643,-3.37284 -1.87527,-10.25766 -2.16984,-189.5 -0.22663,-137.90252 -0.007,-187.38963 0.84945,-191.37391 0.93496,-4.349682 2.13679,-6.380212 6.30568,-10.6537 3.42932,-3.515363 6.48729,-5.644286 9.15055,-6.370509 5.65951,-1.543246 457.3405,-1.543246 463,0 2.6633,0.726223 5.7212,2.855146 9.1506,6.370509 4.1688,4.273488 5.3707,6.304018 6.3056,10.6537 0.8565,3.98428 1.0761,53.47139 0.8495,191.37391 -0.2946,179.24234 -0.3734,186.12716 -2.1699,189.5 -2.6091,4.89867 -6.4553,8.81598 -11.1358,11.34158 l -4,2.15842 -229,0.16842 c -125.95,0.0926 -230.12791,-0.17664 -231.50647,-0.59839 z"
         id="path33" />
    </g>
  </g>
</svg>
